<svg x="2000" y="-300" width="318" height="79" viewBox="0 0 318 79" fill="none" xmlns="http://www.w3.org/2000/svg">
<g clip-path="url(#clip0_1153_16049)">
<path d="M20.5386 62.4134C16.3862 62.4134 12.904 61.5156 10.0919 59.7202C7.27983 57.9247 5.16421 55.4829 3.74504 52.3947C2.32587 49.2826 1.61628 45.7994 1.61628 41.9452C1.61628 38.0431 2.32587 34.5479 3.74504 31.4597C5.16421 28.3715 7.24041 25.9417 9.97364 24.1702C12.7331 22.3746 16.1365 21.4769 20.1838 21.4769C24.2048 21.4769 27.687 22.3746 30.6305 24.1702C33.6002 25.9417 35.8998 28.3715 37.5293 31.4597C39.1587 34.524 39.9734 38.0191 39.9734 41.9452C39.9734 45.8234 39.1718 49.3065 37.5687 52.3947C35.9655 55.4829 33.7054 57.9247 30.7882 59.7202C27.871 61.5156 24.4545 62.4134 20.5386 62.4134ZM0 78.5724V22.5542H8.39678V49.7734H9.57942V78.5724H0ZM19.08 54.657C21.5504 54.657 23.5872 54.0944 25.1903 52.9693C26.7935 51.8441 27.9761 50.324 28.7383 48.4088C29.5267 46.4697 29.9209 44.3152 29.9209 41.9452C29.9209 39.5991 29.5267 37.4685 28.7383 35.5534C27.9498 33.6143 26.7278 32.0821 25.0721 30.957C23.4164 29.8079 21.3139 29.2334 18.7646 29.2334C16.3468 29.2334 14.3757 29.772 12.8514 30.8493C11.3271 31.9026 10.197 33.3868 9.46116 35.302C8.75157 37.1932 8.39678 39.4076 8.39678 41.9452C8.39678 44.4588 8.75157 46.6732 9.46116 48.5884C10.197 50.5035 11.3402 51.9997 12.8908 53.077C14.4677 54.1303 16.5307 54.657 19.08 54.657Z" fill="#1D2C3C"/>
<path d="M43.1436 61.3361V22.5542H51.5403V31.9984L50.5154 30.7774C51.041 29.4847 51.7374 28.3117 52.6047 27.2584C53.4983 26.1811 54.5626 25.2953 55.7978 24.6011C56.8491 23.9547 58.0055 23.4519 59.2669 23.0928C60.5547 22.7098 61.8688 22.4824 63.2091 22.4105C64.5494 22.3148 65.8503 22.3627 67.1118 22.5542V30.6338C65.8503 30.2987 64.3917 30.1909 62.736 30.3106C61.1066 30.4303 59.6349 30.8493 58.3208 31.5674C57.0068 32.2138 55.9293 33.0397 55.0883 34.0452C54.2736 35.0506 53.6691 36.1997 53.2749 37.4924C52.8807 38.7612 52.6836 40.1378 52.6836 41.622V61.3361H43.1436Z" fill="#1D2C3C"/>
<path d="M69.9041 61.3361V22.5542H79.4046V61.3361H69.9041Z" fill="#1D2C3C"/>
<path d="M136.824 61.3361V37.7797C136.824 35.1224 136.101 33.0517 134.656 31.5674C133.21 30.0593 131.252 29.3052 128.782 29.3052C127.258 29.3052 125.891 29.6284 124.682 30.2747C123.473 30.8971 122.514 31.8308 121.804 33.0756C121.095 34.2965 120.74 35.7568 120.74 37.4565L116.522 35.1943C116.496 32.5131 117.153 30.155 118.493 28.1202C119.86 26.0614 121.699 24.4574 124.012 23.3083C126.325 22.1592 128.9 21.5846 131.739 21.5846C136.443 21.5846 140.043 22.8774 142.54 25.4629C145.063 28.0244 146.325 31.3999 146.325 35.5893V61.3361H136.824ZM85.6155 61.3361V22.5542H94.0123V34.5838H95.1949V61.3361H85.6155ZM111.279 61.3361V37.8874C111.279 35.1823 110.556 33.0756 109.111 31.5674C107.665 30.0593 105.694 29.3052 103.197 29.3052C100.78 29.3052 98.8348 30.0593 97.3631 31.5674C95.9176 33.0756 95.1949 35.0387 95.1949 37.4565L90.9374 34.8711C90.9374 32.3574 91.6207 30.0952 92.9873 28.0843C94.3539 26.0734 96.1936 24.4934 98.5063 23.3442C100.845 22.1711 103.46 21.5846 106.351 21.5846C109.531 21.5846 112.186 22.207 114.314 23.4519C116.469 24.6729 118.073 26.3487 119.124 28.4793C120.201 30.5859 120.74 32.9679 120.74 35.6252V61.3361H111.279Z" fill="#1D2C3C"/>
<path d="M169.751 62.4134C165.441 62.4134 161.656 61.5635 158.397 59.8638C155.139 58.1641 152.589 55.8061 150.75 52.7897C148.936 49.7734 148.03 46.3021 148.03 42.3761C148.03 38.1388 148.923 34.4641 150.71 31.352C152.497 28.2159 154.981 25.7861 158.161 24.0624C161.341 22.3387 165.02 21.4769 169.199 21.4769C173.614 21.4769 177.359 22.4225 180.434 24.3138C183.535 26.1811 185.835 28.8264 187.333 32.2497C188.831 35.6731 189.396 39.7068 189.028 44.3511H179.606V41.1911C179.58 36.9778 178.765 33.9015 177.162 31.9624C175.559 30.0234 173.036 29.0538 169.593 29.0538C165.704 29.0538 162.813 30.155 160.92 32.3574C159.028 34.5359 158.082 37.7318 158.082 41.9452C158.082 45.8712 159.028 48.9115 160.92 51.0661C162.813 53.2206 165.572 54.2979 169.199 54.2979C171.538 54.2979 173.548 53.8311 175.23 52.8974C176.939 51.9399 178.253 50.5634 179.173 48.7679L188.555 51.3534C186.925 54.8485 184.402 57.5656 180.986 59.5047C177.596 61.4438 173.851 62.4134 169.751 62.4134ZM155.086 44.3511V37.8156H184.376V44.3511H155.086Z" fill="#1D2C3C"/>
<path d="M74.994 16.9277L65.7024 8.46382L74.994 -3.05176e-05L84.2859 8.46382L74.994 16.9277Z" fill="#885FFF"/>
<path d="M318 4.78802H199.736V79.0002H318V4.78802Z" fill="white"/>
<mask id="mask0_1153_16049" style="mask-type:alpha" maskUnits="userSpaceOnUse" x="199" y="4" width="119" height="76">
<path d="M318 4.78802H199.736V79.0002H318V4.78802Z" fill="#B072FF"/>
</mask>
<g mask="url(#mask0_1153_16049)">
<g filter="url(#filter0_f_1153_16049)">
<path fill-rule="evenodd" clip-rule="evenodd" d="M219.473 15.7565C218.872 1.37547 220.121 -13.0719 227.73 -25.6843C236.09 -39.5409 246.993 -54.9668 264.014 -58.0708C280.841 -61.1395 294.81 -47.0823 310.515 -40.7815C324.155 -35.3092 338.589 -32.5114 349.86 -23.6305C363.831 -12.6269 378.583 -0.723831 382.286 15.7565C386.365 33.8987 381.792 53.4126 370.659 68.9074C359.211 84.8398 341.658 99.4627 320.849 101.262C300.912 102.986 285.653 86.7538 268.229 77.765C254.916 70.8973 240.012 66.2947 231.104 54.9644C222.233 43.682 220.053 29.624 219.473 15.7565Z" fill="#FFAE73"/>
</g>
<g filter="url(#filter1_f_1153_16049)">
<path fill-rule="evenodd" clip-rule="evenodd" d="M222.747 108.335C216.596 91.0142 201.43 73.2541 209.241 56.4972C217.025 39.798 239.83 32.5832 259.468 29.557C277.541 26.7721 295.241 33.3468 311.69 40.7099C326.131 47.1745 336.071 58.2936 347.238 68.8449C360.609 81.476 385.979 90.9623 383.274 108.335C380.449 126.486 349.385 126.683 336.095 140.45C324.878 152.066 327.761 172.482 313.388 180.722C298.121 189.474 276.198 192.075 260.695 183.674C245.377 175.374 246.485 155.2 239.052 140.444C233.518 129.457 226.831 119.837 222.747 108.335Z" fill="#30B4FF"/>
</g>
<g filter="url(#filter2_f_1153_16049)">
<path fill-rule="evenodd" clip-rule="evenodd" d="M116.523 27.8448C120.054 16.5709 123.732 6.21286 128.353 -4.72898C135.05 -20.5855 134.373 -40.7358 149.62 -50.521C165.787 -60.8973 188.029 -59.5938 207.255 -55.368C227.574 -50.9016 250.106 -43.3827 259.493 -26.3705C268.679 -9.72549 253.291 9.21579 253.171 27.8448C253.052 46.2959 270.25 66.3808 258.798 81.6005C247.388 96.7656 221.708 92.5411 201.886 96.0056C184.978 98.9609 168.587 103.468 151.722 100.316C133.263 96.8652 110.243 93.1467 102.619 77.4497C94.849 61.4519 111.255 44.6673 116.523 27.8448Z" fill="#8845F5"/>
</g>
<g filter="url(#filter3_f_1153_16049)">
<path fill-rule="evenodd" clip-rule="evenodd" d="M81.4971 137.273C79.2719 120.222 92.8463 104.165 106.795 92.6136C119.193 82.3465 137.846 84.2389 153.12 77.9618C171.356 70.4673 184.603 50.8691 204.534 52.4457C224.958 54.0616 241.085 70.0225 252.068 85.7899C262.629 100.951 262.542 119.345 263.622 137.273C264.77 156.362 271.966 178.347 258.525 193.03C245.113 207.682 220.001 204.444 199.329 207.51C182.198 210.05 164.468 215.684 148.572 209.335C133.246 203.212 128.347 186.459 117.525 174.832C105.426 161.833 83.7057 154.197 81.4971 137.273Z" fill="#6F86FF"/>
</g>
<path d="M215.504 60.6325V21.5456H222.686V54.498H241.638V60.6325H215.504Z" fill="white"/>
<path d="M252.705 61.4467C250.381 61.4467 248.414 61.0486 246.805 60.2526C245.196 59.4382 243.974 58.3614 243.14 57.0224C242.325 55.6833 241.918 54.2084 241.918 52.598C241.918 51.1865 242.176 49.9199 242.693 48.7978C243.209 47.6578 244.004 46.6806 245.077 45.8664C246.149 45.0338 247.54 44.3554 249.248 43.8306C250.54 43.4505 252.049 43.1067 253.778 42.7991C255.526 42.4915 257.413 42.2109 259.439 41.9576C261.486 41.6861 263.622 41.3967 265.845 41.0891L263.283 42.4192C263.304 40.3925 262.807 38.8994 261.794 37.9404C260.78 36.9813 259.072 36.5018 256.668 36.5018C255.218 36.5018 253.818 36.8095 252.466 37.4247C251.116 38.0399 250.172 39.0985 249.636 40.6005L243.08 38.7275C243.875 36.2483 245.385 34.258 247.61 32.756C249.854 31.2541 252.874 30.5031 256.668 30.5031C259.529 30.5031 262.042 30.9283 264.208 31.7788C266.392 32.6292 268.011 34.0227 269.065 35.9589C269.64 36.9904 269.987 38.049 270.108 39.1347C270.226 40.2024 270.287 41.3694 270.287 42.6363V60.6325H263.998V54.2809L265.041 55.3122C263.59 57.4294 261.893 58.9857 259.946 59.9811C258.019 60.9583 255.605 61.4467 252.705 61.4467ZM254.135 56.2353C255.764 56.2353 257.155 55.9729 258.307 55.448C259.459 54.9232 260.373 54.2809 261.049 53.5208C261.744 52.7608 262.211 52.0459 262.449 51.3766C262.826 50.5442 263.036 49.5941 263.075 48.5264C263.136 47.4407 263.165 46.5631 263.165 45.8935L265.37 46.4905C263.204 46.7982 261.347 47.0696 259.797 47.305C258.248 47.5403 256.917 47.7663 255.804 47.9836C254.691 48.1826 253.708 48.4088 252.854 48.6621C252.02 48.9336 251.314 49.2503 250.738 49.6122C250.162 49.974 249.715 50.3903 249.397 50.8607C249.099 51.3313 248.95 51.8831 248.95 52.5166C248.95 53.2403 249.149 53.8828 249.546 54.4437C249.944 54.9866 250.52 55.4209 251.275 55.7467C252.049 56.0723 253.003 56.2353 254.135 56.2353Z" fill="white"/>
<path d="M290.528 61.4467C287.39 61.4467 284.76 60.7682 282.634 59.4111C280.508 58.0537 278.907 56.208 277.835 53.8737C276.762 51.5212 276.226 48.8883 276.226 45.9749C276.226 43.0253 276.762 40.3834 277.835 38.049C278.907 35.7147 280.479 33.8778 282.544 32.5387C284.628 31.1815 287.201 30.5031 290.26 30.5031C293.301 30.5031 295.934 31.1815 298.158 32.5387C300.402 33.8778 302.142 35.7147 303.372 38.049C304.605 40.3652 305.22 43.0071 305.22 45.9749C305.22 48.9065 304.615 51.5394 303.403 53.8737C302.192 56.208 300.484 58.0537 298.276 59.4111C296.071 60.7682 293.49 61.4467 290.528 61.4467ZM275.004 60.6325V21.5456H282.245V40.0575H281.351V60.6325H275.004ZM289.427 55.5837C291.296 55.5837 292.833 55.1585 294.045 54.3079C295.259 53.4574 296.153 52.3085 296.728 50.8607C297.325 49.3951 297.622 47.7663 297.622 45.9749C297.622 44.2014 297.325 42.591 296.728 41.1434C296.132 39.6776 295.209 38.5194 293.955 37.6689C292.705 36.8003 291.115 36.3661 289.188 36.3661C287.362 36.3661 285.871 36.7733 284.718 37.5875C283.567 38.3837 282.712 39.5057 282.155 40.9534C281.619 42.3828 281.351 44.0569 281.351 45.9749C281.351 47.8749 281.619 49.5488 282.155 50.9964C282.712 52.444 283.577 53.5752 284.749 54.3893C285.94 55.1856 287.501 55.5837 289.427 55.5837Z" fill="white"/>
</g>
</g>
<defs>
<filter id="filter0_f_1153_16049" x="207.342" y="-70.5031" width="188.415" height="183.892" filterUnits="userSpaceOnUse" color-interpolation-filters="sRGB">
<feFlood flood-opacity="0" result="BackgroundImageFix"/>
<feBlend mode="normal" in="SourceGraphic" in2="BackgroundImageFix" result="shape"/>
<feGaussianBlur stdDeviation="6" result="effect1_foregroundBlur_1153_16049"/>
</filter>
<filter id="filter1_f_1153_16049" x="195.055" y="16.904" width="200.419" height="183.892" filterUnits="userSpaceOnUse" color-interpolation-filters="sRGB">
<feFlood flood-opacity="0" result="BackgroundImageFix"/>
<feBlend mode="normal" in="SourceGraphic" in2="BackgroundImageFix" result="shape"/>
<feGaussianBlur stdDeviation="6" result="effect1_foregroundBlur_1153_16049"/>
</filter>
<filter id="filter2_f_1153_16049" x="88.5654" y="-70.503" width="186.168" height="183.892" filterUnits="userSpaceOnUse" color-interpolation-filters="sRGB">
<feFlood flood-opacity="0" result="BackgroundImageFix"/>
<feBlend mode="normal" in="SourceGraphic" in2="BackgroundImageFix" result="shape"/>
<feGaussianBlur stdDeviation="6" result="effect1_foregroundBlur_1153_16049"/>
</filter>
<filter id="filter3_f_1153_16049" x="69.2563" y="40.3559" width="209.315" height="183.892" filterUnits="userSpaceOnUse" color-interpolation-filters="sRGB">
<feFlood flood-opacity="0" result="BackgroundImageFix"/>
<feBlend mode="normal" in="SourceGraphic" in2="BackgroundImageFix" result="shape"/>
<feGaussianBlur stdDeviation="6" result="effect1_foregroundBlur_1153_16049"/>
</filter>
<clipPath id="clip0_1153_16049">
<rect width="318" height="79" fill="white"/>
</clipPath>
</defs>
</svg>